<?xml version="1.0" encoding="utf-8"?>
<!-- Generator: Adobe Illustrator 19.0.1, SVG Export Plug-In . SVG Version: 6.00 Build 0)  -->
<svg version="1.1" id="Back" xmlns="http://www.w3.org/2000/svg" xmlns:xlink="http://www.w3.org/1999/xlink" x="0px" y="0px"
	 viewBox="46 -46 512 512" style="enable-background:new 46 -46 512 512;" xml:space="preserve">
<style type="text/css">
	.st0{fill:#FAFFFD;}
</style>
<g>
	<path class="st0" d="M535.7,187.8H121.6L220.4,89c8.7-8.7,8.7-22.7,0-31.3c-8.7-8.7-22.7-8.7-31.3,0L52.4,194.3
		c-8.7,8.7-8.7,22.7,0,31.3l136.7,136.7c4.3,4.3,10,6.5,15.7,6.5s11.3-2.2,15.7-6.5c8.7-8.7,8.7-22.7,0-31.3l-98.8-98.8h414.2
		c12.2,0,22.2-9.9,22.2-22.2C557.9,197.8,548,187.8,535.7,187.8z"/>
</g>
</svg>
