<?xml version="1.0" encoding="utf-8"?>
<!-- Generator: Adobe Illustrator 19.0.1, SVG Export Plug-In . SVG Version: 6.00 Build 0)  -->
<svg version="1.1" id="Logo" xmlns="http://www.w3.org/2000/svg" xmlns:xlink="http://www.w3.org/1999/xlink" x="0px" y="0px"
	 viewBox="256 119 932 184" style="enable-background:new 256 119 932 184;" xml:space="preserve">
<style type="text/css">
	.st0{fill:#A2D729;}
	.st1{fill:#FAFFFD;}
</style>
<g>
	<path class="st0" d="M384.2,252.1v-57.7L362.1,224c-1.6,2.1-4.1,3.4-6.6,3.4s-5.1-1.3-6.6-3.4l-22.1-29.6v57.7
		c0,4.5-3.7,8.2-8.3,8.2c-4.5,0-8.2-3.7-8.2-8.2v-82.3c0-4.4,3.5-8.2,8.3-8.2c2.5,0,4.9,1.1,6.5,3.2l30.5,40.6l30.5-40.6
		c1.6-2.1,3.9-3.2,6.5-3.2c4.8,0,8.3,3.8,8.3,8.2v82.3c0,4.5-3.7,8.2-8.3,8.2C387.9,260.3,384.2,256.6,384.2,252.1z"/>
	<path class="st0" d="M477.8,227.4c0,18-14.8,32.9-33,32.9c-18,0-32.9-14.8-32.9-32.9c0-18.2,14.8-33,32.9-33
		C463,194.4,477.8,209.3,477.8,227.4z M461.3,227.4c0-9.2-7.3-16.5-16.5-16.5c-9,0-16.4,7.3-16.4,16.5c0,9,7.3,16.4,16.4,16.4
		C454,243.8,461.3,236.5,461.3,227.4z"/>
	<path class="st0" d="M545.9,202.8c0,1.3-0.3,2.4-0.8,3.5l-23.4,49.4c-1.3,2.8-4.2,4.7-7.3,4.7c-3.2,0-6.1-1.8-7.5-4.7l-23.4-49.4
		c-0.6-1.1-0.8-2.3-0.8-3.5c0-3.1,1.7-6.1,4.7-7.5c1.1-0.6,2.4-0.8,3.5-0.8c3.1,0,6.1,1.8,7.5,4.8l16.1,33.7l15.9-33.7
		c1.4-3,4.4-4.8,7.5-4.8c1.1,0,2.4,0.3,3.5,0.8C544.2,196.7,545.9,199.7,545.9,202.8z"/>
	<path class="st0" d="M565.4,182.3c-4.5,0-8.2-3.7-8.2-8.3c0-4.5,3.7-8.2,8.2-8.2s8.3,3.7,8.3,8.2
		C573.7,178.7,569.9,182.3,565.4,182.3z M557.2,252.1v-49.4c0-4.5,3.7-8.3,8.2-8.3s8.3,3.8,8.3,8.3v49.4c0,4.5-3.8,8.2-8.3,8.2
		S557.2,256.6,557.2,252.1z"/>
	<path class="st0" d="M613.2,260.2c-8.6-0.4-16.1-4.1-21.2-10.4c-4.7-5.9-7.1-13.7-7.1-22.4c0-18.2,13-32.9,28.8-32.9
		c7.9,0,15.2,3.2,20.6,9.3c5.4,5.8,8.2,13.7,8.2,22.1c0,4.5-3.7,8.3-8.2,8.3h-32c1.4,4.5,4.5,9.3,11.7,9.6h0.8c2.1,0,6.1,0,9.6-2.5
		c1.4-0.8,3-1.3,4.5-1.3c2.7,0,5.4,1.3,6.9,3.7c1,1.3,1.4,2.8,1.4,4.4c0,2.7-1.4,5.5-3.8,7.1c-6.8,4.5-13.8,5.2-17.8,5.2
		C614.6,260.3,613.8,260.3,613.2,260.2z M624.3,217.7c-2.1-4.2-5.9-6.9-10.6-6.9c-3.9,0-7.6,2.8-9.9,6.9H624.3z"/>
	<path class="st1" d="M754.6,251.4l-0.1-0.1c0.2,0.6,0.4,1.1,0.6,1.7c0.2,0.6,0.3,1.1,0.3,1.7c0,0.8-0.3,1.7-0.8,2.7
		c-0.5,0.9-1.2,1.7-2,2.3c-0.8,0.5-1.7,0.7-2.8,0.7c-2.4,0-4-0.9-5.1-2.7l-20.2-32.1h-19.2v29.2c0,1.5-0.6,2.8-1.7,3.9
		c-1.1,1.1-2.5,1.7-4.1,1.7s-2.9-0.6-4-1.7s-1.6-2.4-1.6-3.9v-87.6c0-1.5,0.5-2.8,1.6-3.9c1.1-1.1,2.4-1.7,4-1.7h23.8
		c0.5,0,2.3,0.2,5.4,0.6c3.1,0.4,6.6,1.5,10.4,3.3H739c5.1,2.7,9.1,6.5,12,11.4c2.9,4.8,4.4,10.4,4.4,16.6c0,0.3,0,0.9-0.1,1.8
		c0,0.9-0.2,2.1-0.5,3.6c-0.3,1.5-0.7,3.1-1.2,4.9s-1.2,3.7-2.2,5.6c-1.3,2.7-3.2,5.2-5.7,7.5c-2.5,2.3-5.4,4.3-8.8,6.2L754.6,251.4
		z M705.3,213.9h18c4.2,0,7.8-0.8,10.7-2.4s5.2-3.9,6.9-6.9c0.7-1.2,1.2-2.5,1.6-3.7c0.4-1.3,0.7-2.4,0.8-3.5c0.2-1.1,0.3-2,0.4-2.7
		c0-0.7,0.1-1.1,0.1-1.2c0-8.4-3.3-14.3-10-17.8c-1.3-0.7-2.6-1.1-3.8-1.5c-1.2-0.3-2.4-0.6-3.4-0.8c-1.1-0.2-2.2-0.3-3.2-0.3h-18
		L705.3,213.9L705.3,213.9z"/>
	<path class="st1" d="M793.4,260.3c-1.1,0-1.9,0-2.3-0.1c-4.3-0.2-8.3-1.2-12-3c-3.7-1.8-6.7-4.2-9.2-7.2c-4.7-6-7-13.5-7-22.4
		c0-4.5,0.8-8.8,2.3-12.8s3.5-7.5,6.1-10.4c2.5-3,5.5-5.3,9-7c3.4-1.7,7.1-2.6,10.9-2.6c3.6,0,7.2,0.9,10.8,2.6s6.8,4,9.5,6.7
		c2.4,2.9,4.4,6.3,5.8,10c1.4,3.8,2.1,7.7,2.1,11.8c0,1.7-0.6,3.1-1.7,4.3c-1.1,1.2-2.5,1.8-4.1,1.8h-39.1c0.7,1.9,1.5,3.8,2.4,5.7
		s2.1,3.7,3.5,5.3s3,2.9,4.8,3.9c1.8,1,3.9,1.5,6.3,1.6h1c1.3,0,3.1-0.1,5.2-0.4c2.2-0.3,4.4-1.2,6.8-2.8c0.7-0.3,1.2-0.5,1.8-0.7
		c0.5-0.2,1.1-0.3,1.6-0.3c2.2,0,4,1.2,5.5,3.5c0.4,0.4,0.6,1.1,0.6,2.3c0,1-0.3,2-0.9,2.9c-0.6,0.9-1.3,1.7-2,2.5
		c-3.3,2.1-6.5,3.4-9.7,4C797.9,260,795.4,260.3,793.4,260.3z M807.2,220.1c-1.9-4.3-4-7.6-6.3-9.7c-2.3-2.2-5.4-3.2-9.4-3.2
		c-3.8,0-6.8,1.1-9.2,3.3c-2.4,2.2-4.7,5.4-7,9.7h31.9V220.1z"/>
	<path class="st1" d="M885.5,195.6c1,0.5,1.8,1.2,2.3,2.2s0.8,2,0.8,3c0,0.6,0,1.1-0.1,1.5s-0.2,0.8-0.4,1.2l-25.4,53.6
		c-0.4,1-1.1,1.8-2,2.4c-1,0.6-2,0.8-3,0.8c-1.2,0-2.4-0.3-3.4-1s-1.8-1.5-2.3-2.4l0.1,0.1c-4.1-8.8-8.4-17.8-12.7-26.8
		c-4.3-9-8.6-18-12.7-26.8c-0.2-0.4-0.3-0.8-0.4-1.2c-0.1-0.4-0.1-0.9-0.1-1.5c0-1,0.3-2.1,1-3.1c0.7-1,1.6-1.8,3-2.4
		c0.4-0.4,1-0.6,1.8-0.6c1,0,2.1,0.3,3.1,1c1,0.7,1.8,1.5,2.3,2.5l20.3,42.2l19.9-42.2v0.1c0.6-0.9,1.3-1.8,2.3-2.5
		c1-0.8,2-1.1,3-1.1c0.7,0,1.5,0.3,2.5,0.8h0.1L885.5,195.6L885.5,195.6z"/>
	<path class="st1" d="M913.5,169.6c0,1.7-0.6,3.1-1.8,4.3c-1.2,1.2-2.6,1.8-4.3,1.8c-1.6,0-3-0.6-4.2-1.8c-1.2-1.2-1.8-2.6-1.8-4.3
		c0-1.6,0.6-3,1.8-4.1c1.2-1.1,2.6-1.7,4.2-1.7c1.7,0,3.1,0.6,4.3,1.7C912.9,166.7,913.5,168,913.5,169.6z M907.5,260.3
		c-1.6,0-3-0.6-4.2-1.8c-1.2-1.2-1.8-2.6-1.8-4.2v-53.6c0-1.7,0.6-3.1,1.8-4.3c1.2-1.2,2.6-1.8,4.2-1.8c1.7,0,3.1,0.6,4.3,1.8
		c1.2,1.2,1.8,2.6,1.8,4.3v53.6c0,1.6-0.6,3-1.8,4.2C910.6,259.7,909.1,260.3,907.5,260.3z"/>
	<path class="st1" d="M958.9,260.3c-1.1,0-1.9,0-2.3-0.1c-4.3-0.2-8.3-1.2-12-3c-3.7-1.8-6.7-4.2-9.2-7.2c-4.7-6-7-13.5-7-22.4
		c0-4.5,0.8-8.8,2.3-12.8s3.5-7.5,6.1-10.4c2.5-3,5.5-5.3,9-7c3.4-1.7,7.1-2.6,10.9-2.6c3.6,0,7.2,0.9,10.8,2.6s6.8,4,9.5,6.7
		c2.4,2.9,4.4,6.3,5.8,10c1.4,3.8,2.1,7.7,2.1,11.8c0,1.7-0.6,3.1-1.7,4.3c-1.1,1.2-2.5,1.8-4.1,1.8H940c0.7,1.9,1.5,3.8,2.4,5.7
		s2.1,3.7,3.5,5.3s3,2.9,4.8,3.9c1.8,1,3.9,1.5,6.3,1.6h1c1.3,0,3.1-0.1,5.2-0.4c2.2-0.3,4.4-1.2,6.8-2.8c0.7-0.3,1.2-0.5,1.8-0.7
		c0.5-0.2,1.1-0.3,1.6-0.3c2.2,0,4,1.2,5.5,3.5c0.4,0.4,0.6,1.1,0.6,2.3c0,1-0.3,2-0.9,2.9c-0.6,0.9-1.3,1.7-2,2.5
		c-3.3,2.1-6.5,3.4-9.7,4C963.5,260,960.9,260.3,958.9,260.3z M972.7,220.1c-1.9-4.3-4-7.6-6.3-9.7c-2.3-2.2-5.4-3.2-9.4-3.2
		c-3.8,0-6.8,1.1-9.2,3.3c-2.4,2.2-4.7,5.4-7,9.7h31.9V220.1z"/>
	<path class="st1" d="M1075.5,195.3c1.1,0.5,2,1.2,2.7,2.2s1,2.1,1,3.3c0,0.8-0.1,1.5-0.3,2.3l0.1-0.1l-19,53.6
		c-0.4,1.1-1.1,2-2.1,2.7s-2.2,1.1-3.4,1.1c-1.3,0-2.5-0.4-3.5-1.1c-1-0.8-1.8-1.7-2.3-2.8v0.1l-13.1-37.5l-7,20
		c-1,3.1-2.1,6.2-3.1,9.2s-2,5.8-2.8,8.3v-0.1c-0.5,1.1-1.2,2.1-2.3,2.8c-1,0.8-2.2,1.1-3.5,1.1c-1.3,0-2.5-0.4-3.5-1.1
		s-1.8-1.6-2.3-2.7L992.3,203l0.1,0.1c-0.2-0.8-0.3-1.5-0.3-2.3c0-1.3,0.3-2.4,0.9-3.4c0.6-0.9,1.5-1.6,2.7-2.1
		c0.3-0.2,0.7-0.3,1.2-0.4c0.5,0,0.9-0.1,1.2-0.1c1.2,0,2.3,0.3,3.4,1c1,0.7,1.7,1.6,2,3l13.3,37.2l13-37.2c0.5-1.3,1.2-2.3,2.2-3
		c1-0.7,2.1-1,3.3-1.1h0.4c1.2,0.1,2.3,0.6,3.4,1.4c1,0.8,1.8,1.8,2.3,2.8v-0.1l13.1,37.2l13-37.2c0.5-1.3,1.2-2.3,2.3-3
		c1-0.7,2.2-1,3.4-1c0.7,0,1.4,0.2,2.1,0.6L1075.5,195.3z M1075.4,195.2c0,0.1,0,0.1,0.1,0.1l1.7-1.6l-2,1.3L1075.4,195.2z"/>
	<path class="st1" d="M1120.6,221.1c2.6,1.2,4.8,2.5,6.4,3.9s3,2.7,3.9,4.1c1,1.4,1.7,2.7,2,4c0.4,1.3,0.7,2.5,0.8,3.5v1.7
		c0,2.5-0.4,5-1.3,7.5c-0.8,2.4-2.2,4.6-3.9,6.5c-2.6,2.5-5.6,4.5-9,5.9s-7.1,2.1-11.1,2.1c-4.5,0-8.7-1-12.5-3s-6.7-4.8-8.7-8.4
		v0.1c-0.2-0.7-0.4-1.2-0.6-1.8c-0.2-0.5-0.3-1-0.3-1.5c0-2.2,1-3.9,3-5.1h-0.1c0.5-0.2,1-0.4,1.5-0.6s1.1-0.3,1.6-0.3
		c0.9,0,1.9,0.3,2.8,0.8s1.6,1.3,2.1,2.3c1.2,2.1,2.9,3.5,5.1,4.3c2.2,0.8,4.2,1.2,6.1,1.2c2.2,0,4.3-0.4,6.3-1.1
		c2.1-0.8,3.7-1.8,4.9-3.1c1.6-1.9,2.4-4.1,2.4-6.8c-0.3-0.7-0.9-1.4-2-2.3c-1-0.9-2.3-1.8-3.7-2.6c-1.5-0.8-3-1.6-4.6-2.3
		c-1.6-0.7-3.1-1.2-4.5-1.5h0.1c-2.2-0.6-4.3-1.4-6.5-2.4s-4.1-2.3-5.9-3.8s-3.2-3.3-4.3-5.5c-1.1-2.2-1.6-4.7-1.6-7.5
		c0-2.5,0.6-4.9,1.7-7.1s2.7-4.1,4.8-5.7c2.1-1.6,4.5-2.9,7.2-3.8c2.7-0.9,5.7-1.4,9-1.4c2.1,0,4.3,0.4,6.6,1.1
		c2.3,0.7,4.5,1.7,6.3,3c1.9,1.1,2.8,2.7,2.8,4.8c0,0.5-0.1,1-0.4,1.6s-0.6,1.1-0.8,1.7c-1,1.8-2.6,2.7-4.7,2.7
		c-1.1,0-2.4-0.4-3.7-1.1h0.1c-0.8-0.5-1.9-0.8-3-1.1c-1.2-0.3-2.3-0.4-3.3-0.4c-1.9,0-3.5,0.3-4.9,0.8s-2.5,1.1-3.4,1.8
		c-0.9,0.7-1.6,1.3-2,2c-0.4,0.7-0.6,1.1-0.6,1.4c0,0.5,0,1,0.1,1.7c0.1,0.7,0.4,1.3,0.9,2c0.5,0.7,1.4,1.4,2.5,2.1
		c1.2,0.7,2.8,1.4,5,2c0.8,0.2,2.3,0.6,4.5,1.1C1116.3,219.1,1118.5,220,1120.6,221.1z"/>
</g>
</svg>
