<?xml version="1.0" encoding="utf-8"?>
<!-- Generator: Adobe Illustrator 19.0.1, SVG Export Plug-In . SVG Version: 6.00 Build 0)  -->
<svg version="1.1" id="Logo" xmlns="http://www.w3.org/2000/svg" xmlns:xlink="http://www.w3.org/1999/xlink" x="0px" y="0px"
	 viewBox="256 119 932 184" style="enable-background:new 256 119 932 184;" xml:space="preserve">
<style type="text/css">
	.st0{fill:none;}
	.st1{fill:#FFFFFF;}
</style>
<g>
	<rect x="256" y="159" class="st0" width="932" height="184"/>
	<path class="st1" d="M384.3,251.9v-57.7l-22.1,29.6c-1.6,2.1-4.1,3.4-6.6,3.4s-5.1-1.3-6.6-3.4l-22.1-29.6v57.7
		c0,4.5-3.7,8.2-8.3,8.2c-4.5,0-8.2-3.7-8.2-8.2v-82.3c0-4.4,3.5-8.2,8.3-8.2c2.5,0,4.9,1.1,6.5,3.2l30.5,40.6l30.5-40.6
		c1.6-2.1,3.9-3.2,6.5-3.2c4.8,0,8.3,3.8,8.3,8.2v82.3c0,4.5-3.7,8.2-8.3,8.2C388,260.1,384.3,256.4,384.3,251.9z"/>
	<path class="st1" d="M477.9,227.2c0,18-14.8,32.9-33,32.9c-18,0-32.9-14.8-32.9-32.9c0-18.2,14.8-33,32.9-33
		C463.1,194.2,477.9,209.1,477.9,227.2z M461.4,227.2c0-9.2-7.3-16.5-16.5-16.5c-9,0-16.4,7.3-16.4,16.5c0,9,7.3,16.4,16.4,16.4
		C454.1,243.6,461.4,236.3,461.4,227.2z"/>
	<path class="st1" d="M546,202.6c0,1.3-0.3,2.4-0.8,3.5l-23.4,49.4c-1.3,2.8-4.2,4.7-7.3,4.7c-3.2,0-6.1-1.8-7.5-4.7l-23.4-49.4
		c-0.6-1.1-0.8-2.3-0.8-3.5c0-3.1,1.7-6.1,4.7-7.5c1.1-0.6,2.4-0.8,3.5-0.8c3.1,0,6.1,1.8,7.5,4.8l16.1,33.7l15.9-33.7
		c1.4-3,4.4-4.8,7.5-4.8c1.1,0,2.4,0.3,3.5,0.8C544.3,196.5,546,199.5,546,202.6z"/>
	<path class="st1" d="M565.5,182.1c-4.5,0-8.2-3.7-8.2-8.3c0-4.5,3.7-8.2,8.2-8.2s8.3,3.7,8.3,8.2
		C573.8,178.5,570,182.1,565.5,182.1z M557.3,251.9v-49.4c0-4.5,3.7-8.3,8.2-8.3s8.3,3.8,8.3,8.3v49.4c0,4.5-3.8,8.2-8.3,8.2
		S557.3,256.4,557.3,251.9z"/>
	<path class="st1" d="M613.3,260c-8.6-0.4-16.1-4.1-21.2-10.4c-4.7-5.9-7.1-13.7-7.1-22.4c0-18.2,13-32.9,28.8-32.9
		c7.9,0,15.2,3.2,20.6,9.3c5.4,5.8,8.2,13.7,8.2,22.1c0,4.5-3.7,8.3-8.2,8.3h-32c1.4,4.5,4.5,9.3,11.7,9.6h0.8c2.1,0,6.1,0,9.6-2.5
		c1.4-0.8,3-1.3,4.5-1.3c2.7,0,5.4,1.3,6.9,3.7c1,1.3,1.4,2.8,1.4,4.4c0,2.7-1.4,5.5-3.8,7.1c-6.8,4.5-13.8,5.2-17.8,5.2
		C614.7,260.1,613.9,260.1,613.3,260z M624.4,217.5c-2.1-4.2-5.9-6.9-10.6-6.9c-3.9,0-7.6,2.8-9.9,6.9H624.4z"/>
	<path class="st1" d="M754.7,251.2l-0.1-0.1c0.2,0.6,0.4,1.1,0.6,1.7c0.2,0.6,0.3,1.1,0.3,1.7c0,0.8-0.3,1.7-0.8,2.7
		c-0.5,0.9-1.2,1.7-2,2.3c-0.8,0.5-1.7,0.7-2.8,0.7c-2.4,0-4-0.9-5.1-2.7l-20.2-32.1h-19.2v29.2c0,1.5-0.6,2.8-1.7,3.9
		s-2.5,1.7-4.1,1.7c-1.6,0-2.9-0.6-4-1.7c-1.1-1.1-1.6-2.4-1.6-3.9V167c0-1.5,0.5-2.8,1.6-3.9c1.1-1.1,2.4-1.7,4-1.7h23.8
		c0.5,0,2.3,0.2,5.4,0.6s6.6,1.5,10.4,3.3h-0.1c5.1,2.7,9.1,6.5,12,11.4c2.9,4.8,4.4,10.4,4.4,16.6c0,0.3,0,0.9-0.1,1.8
		c0,0.9-0.2,2.1-0.5,3.6c-0.3,1.5-0.7,3.1-1.2,4.9c-0.5,1.8-1.2,3.7-2.2,5.6c-1.3,2.7-3.2,5.2-5.7,7.5c-2.5,2.3-5.4,4.3-8.8,6.2
		L754.7,251.2z M705.4,213.7h18c4.2,0,7.8-0.8,10.7-2.4c2.9-1.6,5.2-3.9,6.9-6.9c0.7-1.2,1.2-2.5,1.6-3.7c0.4-1.3,0.7-2.4,0.8-3.5
		c0.2-1.1,0.3-2,0.4-2.7c0-0.7,0.1-1.1,0.1-1.2c0-8.4-3.3-14.3-10-17.8c-1.3-0.7-2.6-1.1-3.8-1.5c-1.2-0.3-2.4-0.6-3.4-0.8
		c-1.1-0.2-2.2-0.3-3.2-0.3h-18V213.7z"/>
	<path class="st1" d="M793.5,260.1c-1.1,0-1.9,0-2.3-0.1c-4.3-0.2-8.3-1.2-12-3c-3.7-1.8-6.7-4.2-9.2-7.2c-4.7-6-7-13.5-7-22.4
		c0-4.5,0.8-8.8,2.3-12.8c1.5-4,3.5-7.5,6.1-10.4c2.5-3,5.5-5.3,9-7c3.4-1.7,7.1-2.6,10.9-2.6c3.6,0,7.2,0.9,10.8,2.6
		c3.6,1.7,6.8,4,9.5,6.7c2.4,2.9,4.4,6.3,5.8,10c1.4,3.8,2.1,7.7,2.1,11.8c0,1.7-0.6,3.1-1.7,4.3c-1.1,1.2-2.5,1.8-4.1,1.8h-39.1
		c0.7,1.9,1.5,3.8,2.4,5.7c0.9,1.9,2.1,3.7,3.5,5.3c1.4,1.6,3,2.9,4.8,3.9c1.8,1,3.9,1.5,6.3,1.6h1c1.3,0,3.1-0.1,5.2-0.4
		c2.2-0.3,4.4-1.2,6.8-2.8c0.7-0.3,1.2-0.5,1.8-0.7c0.5-0.2,1.1-0.3,1.6-0.3c2.2,0,4,1.2,5.5,3.5c0.4,0.4,0.6,1.1,0.6,2.3
		c0,1-0.3,2-0.9,2.9c-0.6,0.9-1.3,1.7-2,2.5c-3.3,2.1-6.5,3.4-9.7,4C798,259.8,795.5,260.1,793.5,260.1z M807.3,219.9
		c-1.9-4.3-4-7.6-6.3-9.7c-2.3-2.2-5.4-3.2-9.4-3.2c-3.8,0-6.8,1.1-9.2,3.3c-2.4,2.2-4.7,5.4-7,9.7H807.3z"/>
	<path class="st1" d="M885.6,195.4c1,0.5,1.8,1.2,2.3,2.2c0.5,1,0.8,2,0.8,3c0,0.6,0,1.1-0.1,1.5c-0.1,0.4-0.2,0.8-0.4,1.2
		l-25.4,53.6c-0.4,1-1.1,1.8-2,2.4c-1,0.6-2,0.8-3,0.8c-1.2,0-2.4-0.3-3.4-1c-1-0.7-1.8-1.5-2.3-2.4l0.1,0.1
		c-4.1-8.8-8.4-17.8-12.7-26.8c-4.3-9-8.6-18-12.7-26.8c-0.2-0.4-0.3-0.8-0.4-1.2c-0.1-0.4-0.1-0.9-0.1-1.5c0-1,0.3-2.1,1-3.1
		c0.7-1,1.6-1.8,3-2.4c0.4-0.4,1-0.6,1.8-0.6c1,0,2.1,0.3,3.1,1c1,0.7,1.8,1.5,2.3,2.5l20.3,42.2l19.9-42.2v0.1
		c0.6-0.9,1.3-1.8,2.3-2.5c1-0.8,2-1.1,3-1.1c0.7,0,1.5,0.3,2.5,0.8H885.6z"/>
	<path class="st1" d="M913.6,169.4c0,1.7-0.6,3.1-1.8,4.3c-1.2,1.2-2.6,1.8-4.3,1.8c-1.6,0-3-0.6-4.2-1.8c-1.2-1.2-1.8-2.6-1.8-4.3
		c0-1.6,0.6-3,1.8-4.1c1.2-1.1,2.6-1.7,4.2-1.7c1.7,0,3.1,0.6,4.3,1.7C913,166.5,913.6,167.8,913.6,169.4z M907.6,260.1
		c-1.6,0-3-0.6-4.2-1.8c-1.2-1.2-1.8-2.6-1.8-4.2v-53.6c0-1.7,0.6-3.1,1.8-4.3c1.2-1.2,2.6-1.8,4.2-1.8c1.7,0,3.1,0.6,4.3,1.8
		c1.2,1.2,1.8,2.6,1.8,4.3v53.6c0,1.6-0.6,3-1.8,4.2C910.7,259.5,909.2,260.1,907.6,260.1z"/>
	<path class="st1" d="M959,260.1c-1.1,0-1.9,0-2.3-0.1c-4.3-0.2-8.3-1.2-12-3c-3.7-1.8-6.7-4.2-9.2-7.2c-4.7-6-7-13.5-7-22.4
		c0-4.5,0.8-8.8,2.3-12.8c1.5-4,3.5-7.5,6.1-10.4c2.5-3,5.5-5.3,9-7c3.4-1.7,7.1-2.6,10.9-2.6c3.6,0,7.2,0.9,10.8,2.6
		c3.6,1.7,6.8,4,9.5,6.7c2.4,2.9,4.4,6.3,5.8,10c1.4,3.8,2.1,7.7,2.1,11.8c0,1.7-0.6,3.1-1.7,4.3c-1.1,1.2-2.5,1.8-4.1,1.8h-39.1
		c0.7,1.9,1.5,3.8,2.4,5.7c0.9,1.9,2.1,3.7,3.5,5.3c1.4,1.6,3,2.9,4.8,3.9c1.8,1,3.9,1.5,6.3,1.6h1c1.3,0,3.1-0.1,5.2-0.4
		c2.2-0.3,4.4-1.2,6.8-2.8c0.7-0.3,1.2-0.5,1.8-0.7c0.5-0.2,1.1-0.3,1.6-0.3c2.2,0,4,1.2,5.5,3.5c0.4,0.4,0.6,1.1,0.6,2.3
		c0,1-0.3,2-0.9,2.9c-0.6,0.9-1.3,1.7-2,2.5c-3.3,2.1-6.5,3.4-9.7,4C963.6,259.8,961,260.1,959,260.1z M972.8,219.9
		c-1.9-4.3-4-7.6-6.3-9.7c-2.3-2.2-5.4-3.2-9.4-3.2c-3.8,0-6.8,1.1-9.2,3.3c-2.4,2.2-4.7,5.4-7,9.7H972.8z"/>
	<path class="st1" d="M1075.6,195.1c1.1,0.5,2,1.2,2.7,2.2c0.7,1,1,2.1,1,3.3c0,0.8-0.1,1.5-0.3,2.3l0.1-0.1l-19,53.6
		c-0.4,1.1-1.1,2-2.1,2.7c-1,0.7-2.2,1.1-3.4,1.1c-1.3,0-2.5-0.4-3.5-1.1c-1-0.8-1.8-1.7-2.3-2.8v0.1l-13.1-37.5l-7,20
		c-1,3.1-2.1,6.2-3.1,9.2c-1,3-2,5.8-2.8,8.3v-0.1c-0.5,1.1-1.2,2.1-2.3,2.8c-1,0.8-2.2,1.1-3.5,1.1c-1.3,0-2.5-0.4-3.5-1.1
		c-1-0.7-1.8-1.6-2.3-2.7l-18.8-53.6l0.1,0.1c-0.2-0.8-0.3-1.5-0.3-2.3c0-1.3,0.3-2.4,0.9-3.4c0.6-0.9,1.5-1.6,2.7-2.1
		c0.3-0.2,0.7-0.3,1.2-0.4c0.5,0,0.9-0.1,1.2-0.1c1.2,0,2.3,0.3,3.4,1c1,0.7,1.7,1.6,2,3l13.3,37.2l13-37.2c0.5-1.3,1.2-2.3,2.2-3
		c1-0.7,2.1-1,3.3-1.1h0.4c1.2,0.1,2.3,0.6,3.4,1.4c1,0.8,1.8,1.8,2.3,2.8v-0.1l13.1,37.2l13-37.2c0.5-1.3,1.2-2.3,2.3-3
		c1-0.7,2.2-1,3.4-1c0.7,0,1.4,0.2,2.1,0.6L1075.6,195.1z M1075.5,195c0,0.1,0,0.1,0.1,0.1l1.7-1.6l-2,1.3L1075.5,195z"/>
	<path class="st1" d="M1120.7,220.9c2.6,1.2,4.8,2.5,6.4,3.9c1.6,1.4,3,2.7,3.9,4.1c1,1.4,1.7,2.7,2,4c0.4,1.3,0.7,2.5,0.8,3.5v1.7
		c0,2.5-0.4,5-1.3,7.5c-0.8,2.4-2.2,4.6-3.9,6.5c-2.6,2.5-5.6,4.5-9,5.9s-7.1,2.1-11.1,2.1c-4.5,0-8.7-1-12.5-3
		c-3.8-2-6.7-4.8-8.7-8.4v0.1c-0.2-0.7-0.4-1.2-0.6-1.8c-0.2-0.5-0.3-1-0.3-1.5c0-2.2,1-3.9,3-5.1h-0.1c0.5-0.2,1-0.4,1.5-0.6
		c0.5-0.2,1.1-0.3,1.6-0.3c0.9,0,1.9,0.3,2.8,0.8c0.9,0.5,1.6,1.3,2.1,2.3c1.2,2.1,2.9,3.5,5.1,4.3c2.2,0.8,4.2,1.2,6.1,1.2
		c2.2,0,4.3-0.4,6.3-1.1c2.1-0.8,3.7-1.8,4.9-3.1c1.6-1.9,2.4-4.1,2.4-6.8c-0.3-0.7-0.9-1.4-2-2.3c-1-0.9-2.3-1.8-3.7-2.6
		c-1.5-0.8-3-1.6-4.6-2.3c-1.6-0.7-3.1-1.2-4.5-1.5h0.1c-2.2-0.6-4.3-1.4-6.5-2.4c-2.2-1-4.1-2.3-5.9-3.8c-1.8-1.5-3.2-3.3-4.3-5.5
		c-1.1-2.2-1.6-4.7-1.6-7.5c0-2.5,0.6-4.9,1.7-7.1c1.1-2.2,2.7-4.1,4.8-5.7c2.1-1.6,4.5-2.9,7.2-3.8c2.7-0.9,5.7-1.4,9-1.4
		c2.1,0,4.3,0.4,6.6,1.1c2.3,0.7,4.5,1.7,6.3,3c1.9,1.1,2.8,2.7,2.8,4.8c0,0.5-0.1,1-0.4,1.6c-0.3,0.6-0.6,1.1-0.8,1.7
		c-1,1.8-2.6,2.7-4.7,2.7c-1.1,0-2.4-0.4-3.7-1.1h0.1c-0.8-0.5-1.9-0.8-3-1.1c-1.2-0.3-2.3-0.4-3.3-0.4c-1.9,0-3.5,0.3-4.9,0.8
		c-1.4,0.5-2.5,1.1-3.4,1.8c-0.9,0.7-1.6,1.3-2,2c-0.4,0.7-0.6,1.1-0.6,1.4c0,0.5,0,1,0.1,1.7c0.1,0.7,0.4,1.3,0.9,2
		c0.5,0.7,1.4,1.4,2.5,2.1c1.2,0.7,2.8,1.4,5,2c0.8,0.2,2.3,0.6,4.5,1.1C1116.4,218.9,1118.6,219.8,1120.7,220.9z"/>
</g>
</svg>
